<svg xmlns="http://www.w3.org/2000/svg" id="Layer_2" viewBox="0 0 180.191 67.647"><defs><style>.cls-1{fill:#dad5cc;}.cls-1,.cls-2{stroke-width:0px;}.cls-2{fill:#f51361;}</style></defs><g id="Layer_1-2"><path class="cls-2" d="M53.694,39.229c0,2.102,1.676,3.862,3.769,3.862l29.037.011c1.448,0,2.619-1.177,2.619-2.632,0,1.455,1.2,2.632,2.652,2.632l29.075-.055c2.104,0,3.815-1.665,3.815-3.765l.042-35.411c0-2.091-1.708-3.794-3.799-3.794s-3.799,1.703-3.799,3.794l.012,31.65-24.176-.003.006-31.647c0-2.091-1.695-3.794-3.793-3.794s-3.793,1.703-3.793,3.794l.014,31.671-24.065-.021-.022-31.65c0-2.091-1.691-3.794-3.789-3.794s-3.795,1.703-3.795,3.794l-.011,35.357Z"></path><path class="cls-2" d="M20.471,39.276c0,2.106,1.683,3.885,3.774,3.885s3.822-1.684,3.822-3.777V7.609l16.601.015c2.1,0,3.849-1.707,3.849-3.806S46.768.012,44.668.012l-40.873-.012C1.697,0,0,1.724,0,3.811c0,2.105,1.771,3.762,3.87,3.762l16.629-.013-.028,31.715Z"></path><path class="cls-2" d="M180.055,3.833c0-2.094-1.652-3.833-3.753-3.833l-39.473.011c-2.095,0-3.75,1.646-3.75,3.738l.022,35.515c0,2.1,1.65,3.838,3.748,3.838l39.379-.011c2.104,0,3.838-1.627,3.838-3.729l-.012-35.529ZM172.445,35.513h-31.767V7.596l31.781.028-.015,27.889Z"></path><path class="cls-1" d="M1.289,51.249h11.351v1.81H3.587v5.222h8.606v1.82H3.587v7.126H1.289v-15.978Z"></path><path class="cls-1" d="M18.346,67.228h-2.3v-15.978h7.85c4.939,0,6.044,1.664,6.044,4.223,0,1.952-1.416,3.413-3.649,3.724v.045c2.143.262,2.72,1.12,3.142,3.821.265,1.708.46,3.124.904,4.166h-2.433c-.421-1.128-.662-3.364-1.086-5.159-.262-1.154-1.015-1.967-4.025-1.967h-4.449v7.126ZM18.346,58.282h5.249c2.434,0,3.916-.569,3.916-2.611,0-1.94-1.067-2.611-3.877-2.611h-5.287v5.222Z"></path><path class="cls-1" d="M42.582,50.826c6.705,0,8.981,4.601,8.981,8.415s-2.275,8.407-8.981,8.407-8.988-4.608-8.988-8.407,2.278-8.415,8.988-8.415ZM42.582,65.827c3.865,0,6.542-2.653,6.542-6.586s-2.677-6.597-6.542-6.597-6.552,2.656-6.552,6.597,2.677,6.586,6.552,6.586Z"></path><path class="cls-1" d="M68.377,51.249h2.304v15.978h-3.138l-9.791-13.637h-.038v13.637h-2.305v-15.978h3.145l9.78,13.629h.042v-13.629Z"></path><path class="cls-1" d="M79.906,53.194h-6.768v-1.945h15.841v1.945h-6.771v14.034h-2.303v-14.034Z"></path><path class="cls-1" d="M104.471,53.194h-6.773v-1.945h15.843v1.945h-6.773v14.034h-2.296v-14.034Z"></path><path class="cls-1" d="M116.201,51.249h11.942v1.81h-9.646v5.046h9.029v1.821h-9.029v5.489h9.915v1.813h-12.211v-15.978Z"></path><path class="cls-1" d="M132.572,51.249h11.951v1.81h-9.649v5.046h9.03v1.821h-9.03v5.489h9.911v1.813h-12.213v-15.978Z"></path><path class="cls-1" d="M153.592,53.194h-6.768v-1.945h15.842v1.945h-6.767v14.034h-2.307v-14.034Z"></path><path class="cls-1" d="M177.891,59.788h-10.265v7.44h-2.307v-15.978h2.307v6.728h10.265v-6.728h2.3v15.978h-2.3v-7.44Z"></path></g></svg>